<?xml version="1.0" encoding="UTF-8" standalone="no"?>
<!-- Created with Inkscape (http://www.inkscape.org/) -->

<svg
   xmlns:dc="http://purl.org/dc/elements/1.1/"
   xmlns:cc="http://creativecommons.org/ns#"
   xmlns:rdf="http://www.w3.org/1999/02/22-rdf-syntax-ns#"
   xmlns:svg="http://www.w3.org/2000/svg"
   xmlns="http://www.w3.org/2000/svg"
   version="1.1"
   width="729"
   height="729"
   viewBox="0 0 729 729"
   id="svg3041">
  <title
     id="title3043">logo2016</title>
  <desc
     id="desc3045">Created with Sketch.</desc>
  <metadata
     id="metadata3057">
    <rdf:RDF>
      <cc:Work
         rdf:about="">
        <dc:format>image/svg+xml</dc:format>
        <dc:type
           rdf:resource="http://purl.org/dc/dcmitype/StillImage" />
        <dc:title>logo2016</dc:title>
      </cc:Work>
    </rdf:RDF>
  </metadata>
  <defs
     id="defs3047" />
  <g
     id="Page-1"
     style="fill:none;stroke:none">
    <g
       transform="translate(15,15)"
       id="logo2016">
      <g
         id="layer1">
        <path
           d="m 698.69016,349.6479 c 0,192.73405 -156.24182,348.97588 -348.97587,348.97588 C 156.98024,698.62378 0.73841823,542.38195 0.73841823,349.6479 0.73841823,156.91384 156.98024,0.67201884 349.71429,0.67201884 c 192.73405,0 348.97587,156.24182116 348.97587,348.97588116 l 0,0 z"
           id="path2985"
           style="fill:#ffffff;stroke:#909090;stroke-width:30.11840439" />
        <path
           d="m 699.22756,339.76456 c -1e-5,162.54739 -131.77071,294.31809 -294.3181,294.31808 -162.54739,0 -294.31808,-131.7707 -294.31808,-294.3181 l 294.31809,2e-5 294.31809,0 z"
           transform="matrix(0.92442532,-0.38136312,0.38136312,0.92442532,-155.0938,191.21663)"
           id="path3764"
           style="fill:#14bcf4" />
        <path
           d="m 511,350 c 0,88.91784 -72.08216,161 -161,161 -88.91785,0 -161,-72.08216 -161,-161 0,-88.91785 72.08215,-161 161,-161 88.91784,0 161,72.08215 161,161 l 0,0 z"
           id="path3766"
           style="fill:#ffffff" />
      </g>
    </g>
  </g>
</svg>
