<?xml version="1.0" encoding="UTF-8" standalone="no"?>
<svg xmlns="http://www.w3.org/2000/svg"
   width="729"
   height="729"
   viewBox="0 0 729 729">
  <path
     style="fill:#2274a5;fill-opacity:1;stroke:#ffffff;stroke-width:50;stroke-opacity:0.5;stroke-miterlimit:4;stroke-dasharray:none"
     d="m 713.69016,364.6479 c 0,192.73405 -156.24182,348.97588 -348.97587,348.97588 -192.73405,0 -348.975872,-156.24183 -348.975872,-348.97588 0,-192.73406 156.241822,-348.975881 348.975872,-348.975881 192.73405,0 348.97587,156.241821 348.97587,348.975881 l 0,0 z" />
  <path
     style="fill:#ffffff;fill-opacity:0.5;stroke:none"
     d="M 634.04029,247.64399 C 695.53894,397.90692 624.54598,569.97157 475.47305,631.96114 326.40013,693.95072 155.69815,622.39103 94.199491,472.1281 L 364.1199,359.88605 634.04029,247.64399 Z" />
  <path
     style="fill:#2274a5;fill-opacity:1;stroke:none"
     d="m 525.71429,364.6479 c 0,88.91784 -72.08216,161 -161,161 -88.91785,0 -161,-72.08216 -161,-161 0,-88.91785 72.08215,-161 161,-161 88.91784,0 161,72.08215 161,161 l 0,0 z" />
</svg>
